{"title":"The Angry Birds Movie (2016) BRRIP 1080P NO CINAVIA","uid":15807192,"size":3793153802,"categoryP":"video","categoryS":"hd___movies","magnet":"?xt=urn:btih:1578733c5dcfe4163cf0b93c94fb6ff56578d41c&amp;dn=The+Angry+Birds+Movie+%282016%29+BRRIP+1080P+NO+CINAVIA&amp;tr=udp%3A%2F%2Ftracker.leechers-paradise.org%3A6969&amp;tr=udp%3A%2F%2Fzer0day.ch%3A1337&amp;tr=udp%3A%2F%2Fopen.demonii.com%3A1337&amp;tr=udp%3A%2F%2Ftracker.coppersurfer.tk%3A6969&amp;tr=udp%3A%2F%2Fexodus.desync.com%3A6969","seeders":1,"leechers":3,"uploader":"jmanwf","files":1,"time":1473568053,"description":"Find out why the birds are so angry. When an island populated by happy, flightless birds is visited by mysterious green piggies, it's up to three unlikely outcasts - Red, Chuck and Bomb - to figure out what the pigs are up to.\r\n\r\nVideo\r\nID : 1\r\nFormat : AVC\r\nFormat/Info : Advanced Video Codec\r\nFormat profile :   \r\nFormat settings, CABAC : Yes\r\nFormat settings, ReFrames : 3 frames\r\nFormat settings, GOP : M=4, N=24\r\nCodec ID : V_MPEG4/ISO/AVC\r\nDuration : 1 h 37 min\r\nBit rate mode : Variable\r\nBit rate : 3 888 kb/s\r\nMaximum bit rate : 30.0 Mb/s\r\nWidth : 1 920 pixels\r\nHeight : 1 080 pixels\r\nDisplay aspect ratio : 16:9\r\nFrame rate mode : Constant\r\nFrame rate : 23.976 (24000/1001) FPS\r\nColor space : YUV\r\nChroma subsampling : 4:2:0\r\nBit depth : 8 bits\r\nScan type : Progressive\r\nBits/(Pixel*Frame) : 0.078\r\nStream size : 2.64 GiB (75%)\r\nLanguage : English\r\nDefault : Yes\r\nForced : No\r\nColor range : Limited\r\nColor primaries : BT.709\r\nTransfer characteristics : BT.709\r\nMatrix coefficients : BT.709\r\n\r\nAudio #1\r\nID : 2\r\nFormat : AC-3\r\nFormat/Info : Audio Coding 3\r\nMode extension : CM (complete main)\r\nFormat settings, Endianness : Big\r\nCodec ID : A_AC3\r\nDuration : 1 h 37 min\r\nBit rate mode : Constant\r\nBit rate : 224 kb/s\r\nChannel(s) : 2 channels\r\nChannel positions : Front: L R\r\nSampling rate : 48.0 kHz\r\nFrame rate : 31.250 FPS (1536 spf)\r\nCompression mode : Lossy\r\nStream size : 156 MiB (4%)\r\nLanguage : English\r\nDefault : Yes\r\nForced : No\r\n\r\nAudio #2\r\nID : 3\r\nFormat : AC-3\r\nFormat/Info : Audio Coding 3\r\nMode extension : CM (complete main)\r\nFormat settings, Endianness : Big\r\nCodec ID : A_AC3\r\nDuration : 1 h 37 min\r\nBit rate mode : Constant\r\nBit rate : 640 kb/s\r\nChannel(s) : 6 channels\r\nChannel positions : Front: L C R, Side: L R, LFE\r\nSampling rate : 48.0 kHz\r\nFrame rate : 31.250 FPS (1536 spf)\r\nCompression mode : Lossy\r\nStream size : 445 MiB (12%)\r\nLanguage : English\r\nDefault : No\r\nForced : No\r\n\r\nAudio #3\r\nID : 4\r\nFormat : AC-3\r\nFormat/Info : Audio Coding 3\r\nMode extension : CM (complete main)\r\nFormat settings, Endianness : Big\r\nCodec ID : A_AC3\r\nDuration : 1 h 37 min\r\nBit rate mode : Constant\r\nBit rate : 224 kb/s\r\nChannel(s) : 2 channels\r\nChannel positions : Front: L R\r\nSampling rate : 48.0 kHz\r\nFrame rate : 31.250 FPS (1536 spf)\r\nCompression mode : Lossy\r\nStream size : 156 MiB (4%)\r\nLanguage : French\r\nDefault : No\r\nForced : No\r\n\r\nAudio #4\r\nID : 5\r\nFormat : AC-3\r\nFormat/Info : Audio Coding 3\r\nMode extension : CM (complete main)\r\nFormat settings, Endianness : Big\r\nCodec ID : A_AC3\r\nDuration : 1 h 37 min\r\nBit rate mode : Constant\r\nBit rate : 224 kb/s\r\nChannel(s) : 2 channels\r\nChannel positions : Front: L R\r\nSampling rate : 48.0 kHz\r\nFrame rate : 31.250 FPS (1536 spf)\r\nCompression mode : Lossy\r\nStream size : 156 MiB (4%)\r\nLanguage : Spanish\r\nDefault : No\r\nForced : No\r\n\r\nText\r\nID : 6\r\nFormat : UTF-8\r\nCodec ID : S_TEXT/UTF8\r\nCodec ID/Info : UTF-8 Plain Text\r\nDuration : 1 h 32 min\r\nBit rate : 127 b/s\r\nCount of elements : 2368\r\nStream size : 86.0 KiB (0%)\r\nLanguage : English\r\nDefault : Yes\r\nForced : No\r\n\r\n \nhttps://s11.postimg.org/3oommlrwz/image.jpg\r\n\r\n\r\n\r\n \nhttps://s11.postimg.org/h6viyw42b/image.jpg","torrent":{"xt":"urn:btih:1578733c5dcfe4163cf0b93c94fb6ff56578d41c","amp;dn":"The+Angry+Birds+Movie+%282016%29+BRRIP+1080P+NO+CINAVIA","amp;tr":["udp%3A%2F%2Ftracker.leechers-paradise.org%3A6969","udp%3A%2F%2Fzer0day.ch%3A1337","udp%3A%2F%2Fopen.demonii.com%3A1337","udp%3A%2F%2Ftracker.coppersurfer.tk%3A6969","udp%3A%2F%2Fexodus.desync.com%3A6969"],"infoHash":"1578733c5dcfe4163cf0b93c94fb6ff56578d41c","infoHashBuffer":{"type":"Buffer","data":[21,120,115,60,93,207,228,22,60,240,185,60,148,251,111,245,101,120,212,28]},"announce":[],"urlList":[]}}